<mxfile host="app.diagrams.net" modified="2024-07-21T17:56:58.823Z" agent="Mozilla/5.0 (Windows NT 10.0; Win64; x64) AppleWebKit/537.36 (KHTML, like Gecko) Chrome/126.0.0.0 Safari/537.36" etag="HiXGmDoE1zhylAlO6NAy" version="24.7.1" type="github">
  <diagram id="C5RBs43oDa-KdzZeNtuy" name="Page-1">
    <mxGraphModel dx="2129" dy="1899" grid="1" gridSize="10" guides="1" tooltips="1" connect="1" arrows="1" fold="1" page="1" pageScale="1" pageWidth="827" pageHeight="1169" math="0" shadow="0">
      <root>
        <mxCell id="WIyWlLk6GJQsqaUBKTNV-0" />
        <mxCell id="WIyWlLk6GJQsqaUBKTNV-1" parent="WIyWlLk6GJQsqaUBKTNV-0" />
        <mxCell id="iVN39y9Mqh5KVstO0Rnh-0" value="User Service" style="whiteSpace=wrap;html=1;aspect=fixed;" parent="WIyWlLk6GJQsqaUBKTNV-1" vertex="1">
          <mxGeometry x="450" y="40" width="80" height="80" as="geometry" />
        </mxCell>
        <mxCell id="iVN39y9Mqh5KVstO0Rnh-7" value="Game Agent" style="whiteSpace=wrap;html=1;aspect=fixed;" parent="WIyWlLk6GJQsqaUBKTNV-1" vertex="1">
          <mxGeometry x="450" y="280" width="80" height="80" as="geometry" />
        </mxCell>
        <mxCell id="iVN39y9Mqh5KVstO0Rnh-8" value="" style="endArrow=classic;startArrow=classic;html=1;rounded=0;entryX=0.5;entryY=1;entryDx=0;entryDy=0;exitX=0.5;exitY=0;exitDx=0;exitDy=0;" parent="WIyWlLk6GJQsqaUBKTNV-1" source="iVN39y9Mqh5KVstO0Rnh-7" target="iVN39y9Mqh5KVstO0Rnh-0" edge="1">
          <mxGeometry width="50" height="50" relative="1" as="geometry">
            <mxPoint x="390" y="400" as="sourcePoint" />
            <mxPoint x="440" y="350" as="targetPoint" />
          </mxGeometry>
        </mxCell>
        <mxCell id="iVN39y9Mqh5KVstO0Rnh-9" value="Tournament Service" style="whiteSpace=wrap;html=1;aspect=fixed;" parent="WIyWlLk6GJQsqaUBKTNV-1" vertex="1">
          <mxGeometry x="200" y="40" width="80" height="80" as="geometry" />
        </mxCell>
        <mxCell id="iVN39y9Mqh5KVstO0Rnh-10" value="Battle Service" style="whiteSpace=wrap;html=1;aspect=fixed;" parent="WIyWlLk6GJQsqaUBKTNV-1" vertex="1">
          <mxGeometry x="200" y="480" width="80" height="80" as="geometry" />
        </mxCell>
        <mxCell id="iVN39y9Mqh5KVstO0Rnh-12" value="Notification Service" style="whiteSpace=wrap;html=1;aspect=fixed;" parent="WIyWlLk6GJQsqaUBKTNV-1" vertex="1">
          <mxGeometry x="560" y="480" width="80" height="80" as="geometry" />
        </mxCell>
        <mxCell id="iVN39y9Mqh5KVstO0Rnh-13" value="Replay Service" style="whiteSpace=wrap;html=1;aspect=fixed;" parent="WIyWlLk6GJQsqaUBKTNV-1" vertex="1">
          <mxGeometry x="-40" y="280" width="80" height="80" as="geometry" />
        </mxCell>
        <mxCell id="iVN39y9Mqh5KVstO0Rnh-14" value="Rating Service" style="whiteSpace=wrap;html=1;aspect=fixed;" parent="WIyWlLk6GJQsqaUBKTNV-1" vertex="1">
          <mxGeometry x="200" y="-160" width="80" height="80" as="geometry" />
        </mxCell>
        <mxCell id="iVN39y9Mqh5KVstO0Rnh-15" value="Admin Service" style="whiteSpace=wrap;html=1;aspect=fixed;" parent="WIyWlLk6GJQsqaUBKTNV-1" vertex="1">
          <mxGeometry x="290" y="280" width="80" height="80" as="geometry" />
        </mxCell>
        <mxCell id="iVN39y9Mqh5KVstO0Rnh-16" value="БД&amp;nbsp;User Service" style="shape=cylinder3;whiteSpace=wrap;html=1;boundedLbl=1;backgroundOutline=1;size=15;" parent="WIyWlLk6GJQsqaUBKTNV-1" vertex="1">
          <mxGeometry x="600" y="40" width="60" height="80" as="geometry" />
        </mxCell>
        <mxCell id="iVN39y9Mqh5KVstO0Rnh-17" value="" style="endArrow=classic;startArrow=classic;html=1;rounded=0;entryX=0;entryY=0.5;entryDx=0;entryDy=0;entryPerimeter=0;exitX=1;exitY=0.5;exitDx=0;exitDy=0;" parent="WIyWlLk6GJQsqaUBKTNV-1" source="iVN39y9Mqh5KVstO0Rnh-0" target="iVN39y9Mqh5KVstO0Rnh-16" edge="1">
          <mxGeometry width="50" height="50" relative="1" as="geometry">
            <mxPoint x="390" y="370" as="sourcePoint" />
            <mxPoint x="440" y="320" as="targetPoint" />
          </mxGeometry>
        </mxCell>
        <mxCell id="iVN39y9Mqh5KVstO0Rnh-18" value="" style="endArrow=classic;startArrow=classic;html=1;rounded=0;entryX=1;entryY=0;entryDx=0;entryDy=0;exitX=0;exitY=1;exitDx=0;exitDy=0;" parent="WIyWlLk6GJQsqaUBKTNV-1" source="iVN39y9Mqh5KVstO0Rnh-0" target="iVN39y9Mqh5KVstO0Rnh-15" edge="1">
          <mxGeometry width="50" height="50" relative="1" as="geometry">
            <mxPoint x="390" y="370" as="sourcePoint" />
            <mxPoint x="440" y="320" as="targetPoint" />
          </mxGeometry>
        </mxCell>
        <mxCell id="iVN39y9Mqh5KVstO0Rnh-19" value="" style="endArrow=classic;startArrow=classic;html=1;rounded=0;exitX=1;exitY=0;exitDx=0;exitDy=0;entryX=0;entryY=1;entryDx=0;entryDy=0;" parent="WIyWlLk6GJQsqaUBKTNV-1" source="iVN39y9Mqh5KVstO0Rnh-10" target="iVN39y9Mqh5KVstO0Rnh-7" edge="1">
          <mxGeometry width="50" height="50" relative="1" as="geometry">
            <mxPoint x="390" y="370" as="sourcePoint" />
            <mxPoint x="360" y="320" as="targetPoint" />
          </mxGeometry>
        </mxCell>
        <mxCell id="iVN39y9Mqh5KVstO0Rnh-21" value="" style="endArrow=classic;startArrow=classic;html=1;rounded=0;exitX=0.5;exitY=1;exitDx=0;exitDy=0;entryX=0;entryY=0;entryDx=0;entryDy=0;" parent="WIyWlLk6GJQsqaUBKTNV-1" source="iVN39y9Mqh5KVstO0Rnh-9" target="iVN39y9Mqh5KVstO0Rnh-15" edge="1">
          <mxGeometry width="50" height="50" relative="1" as="geometry">
            <mxPoint x="390" y="370" as="sourcePoint" />
            <mxPoint x="440" y="320" as="targetPoint" />
          </mxGeometry>
        </mxCell>
        <mxCell id="iVN39y9Mqh5KVstO0Rnh-22" value="" style="endArrow=classic;startArrow=classic;html=1;rounded=0;entryX=0.5;entryY=0;entryDx=0;entryDy=0;exitX=0.5;exitY=1;exitDx=0;exitDy=0;" parent="WIyWlLk6GJQsqaUBKTNV-1" source="iVN39y9Mqh5KVstO0Rnh-15" target="iVN39y9Mqh5KVstO0Rnh-10" edge="1">
          <mxGeometry width="50" height="50" relative="1" as="geometry">
            <mxPoint x="390" y="370" as="sourcePoint" />
            <mxPoint x="440" y="320" as="targetPoint" />
          </mxGeometry>
        </mxCell>
        <mxCell id="iVN39y9Mqh5KVstO0Rnh-23" value="" style="endArrow=classic;startArrow=classic;html=1;rounded=0;exitX=0.5;exitY=0;exitDx=0;exitDy=0;entryX=0.5;entryY=1;entryDx=0;entryDy=0;" parent="WIyWlLk6GJQsqaUBKTNV-1" source="iVN39y9Mqh5KVstO0Rnh-9" target="iVN39y9Mqh5KVstO0Rnh-14" edge="1">
          <mxGeometry width="50" height="50" relative="1" as="geometry">
            <mxPoint x="390" y="370" as="sourcePoint" />
            <mxPoint x="240" y="80" as="targetPoint" />
          </mxGeometry>
        </mxCell>
        <mxCell id="iVN39y9Mqh5KVstO0Rnh-25" value="" style="endArrow=classic;startArrow=classic;html=1;rounded=0;exitX=0.5;exitY=0;exitDx=0;exitDy=0;entryX=1;entryY=1;entryDx=0;entryDy=0;" parent="WIyWlLk6GJQsqaUBKTNV-1" source="iVN39y9Mqh5KVstO0Rnh-12" target="iVN39y9Mqh5KVstO0Rnh-7" edge="1">
          <mxGeometry width="50" height="50" relative="1" as="geometry">
            <mxPoint x="390" y="370" as="sourcePoint" />
            <mxPoint x="440" y="320" as="targetPoint" />
          </mxGeometry>
        </mxCell>
        <mxCell id="iVN39y9Mqh5KVstO0Rnh-26" value="" style="endArrow=classic;startArrow=classic;html=1;rounded=0;exitX=1;exitY=1;exitDx=0;exitDy=0;" parent="WIyWlLk6GJQsqaUBKTNV-1" source="iVN39y9Mqh5KVstO0Rnh-9" target="iVN39y9Mqh5KVstO0Rnh-7" edge="1">
          <mxGeometry width="50" height="50" relative="1" as="geometry">
            <mxPoint x="390" y="370" as="sourcePoint" />
            <mxPoint x="440" y="320" as="targetPoint" />
          </mxGeometry>
        </mxCell>
        <mxCell id="iVN39y9Mqh5KVstO0Rnh-27" value="" style="endArrow=classic;startArrow=classic;html=1;rounded=0;exitX=0;exitY=0;exitDx=0;exitDy=0;entryX=1;entryY=1;entryDx=0;entryDy=0;" parent="WIyWlLk6GJQsqaUBKTNV-1" source="iVN39y9Mqh5KVstO0Rnh-10" target="iVN39y9Mqh5KVstO0Rnh-13" edge="1">
          <mxGeometry width="50" height="50" relative="1" as="geometry">
            <mxPoint x="390" y="370" as="sourcePoint" />
            <mxPoint x="440" y="320" as="targetPoint" />
          </mxGeometry>
        </mxCell>
        <mxCell id="iVN39y9Mqh5KVstO0Rnh-28" value="" style="endArrow=classic;startArrow=classic;html=1;rounded=0;entryX=0;entryY=1;entryDx=0;entryDy=0;exitX=1;exitY=0;exitDx=0;exitDy=0;" parent="WIyWlLk6GJQsqaUBKTNV-1" source="iVN39y9Mqh5KVstO0Rnh-13" target="iVN39y9Mqh5KVstO0Rnh-9" edge="1">
          <mxGeometry width="50" height="50" relative="1" as="geometry">
            <mxPoint x="390" y="370" as="sourcePoint" />
            <mxPoint x="440" y="320" as="targetPoint" />
          </mxGeometry>
        </mxCell>
        <mxCell id="iVN39y9Mqh5KVstO0Rnh-29" value="БД&amp;nbsp;Replay Service" style="shape=cylinder3;whiteSpace=wrap;html=1;boundedLbl=1;backgroundOutline=1;size=15;" parent="WIyWlLk6GJQsqaUBKTNV-1" vertex="1">
          <mxGeometry x="-30" y="480" width="60" height="80" as="geometry" />
        </mxCell>
        <mxCell id="iVN39y9Mqh5KVstO0Rnh-31" style="edgeStyle=orthogonalEdgeStyle;rounded=0;orthogonalLoop=1;jettySize=auto;html=1;entryX=0.5;entryY=0;entryDx=0;entryDy=0;" parent="WIyWlLk6GJQsqaUBKTNV-1" source="iVN39y9Mqh5KVstO0Rnh-30" target="iVN39y9Mqh5KVstO0Rnh-0" edge="1">
          <mxGeometry relative="1" as="geometry" />
        </mxCell>
        <mxCell id="iVN39y9Mqh5KVstO0Rnh-30" value="&lt;div&gt;Регистрация и аутентификация пользователей.&lt;/div&gt;&lt;div&gt;Управление профилями пользователей.&lt;/div&gt;&lt;div&gt;Выдача токенов для подключения к сервисам уведомлений, боев&amp;nbsp; и турниров.&lt;/div&gt;&lt;div&gt;&lt;br&gt;&lt;/div&gt;&lt;div&gt;Endpoints:&lt;/div&gt;&lt;div&gt;POST /register: Регистрация пользователя.&lt;/div&gt;&lt;div&gt;POST /login: Аутентификация пользователя.&lt;/div&gt;&lt;div&gt;GET /profile/{userId}: Получение информации о пользователе.&lt;/div&gt;&lt;div&gt;PUT /profile/{userId}: Обновление информации о пользователе.&lt;/div&gt;" style="text;html=1;align=left;verticalAlign=middle;whiteSpace=wrap;rounded=0;" parent="WIyWlLk6GJQsqaUBKTNV-1" vertex="1">
          <mxGeometry x="510" y="-280" width="510" height="130" as="geometry" />
        </mxCell>
        <mxCell id="iVN39y9Mqh5KVstO0Rnh-34" style="edgeStyle=orthogonalEdgeStyle;rounded=0;orthogonalLoop=1;jettySize=auto;html=1;" parent="WIyWlLk6GJQsqaUBKTNV-1" source="iVN39y9Mqh5KVstO0Rnh-33" edge="1">
          <mxGeometry relative="1" as="geometry">
            <mxPoint x="200" y="80" as="targetPoint" />
            <Array as="points">
              <mxPoint x="-80" y="80" />
              <mxPoint x="200" y="80" />
            </Array>
          </mxGeometry>
        </mxCell>
        <mxCell id="iVN39y9Mqh5KVstO0Rnh-33" value="&lt;div&gt;Создание и управление турнирами.&lt;/div&gt;&lt;div&gt;Обработка заявок на участие.&lt;/div&gt;&lt;div&gt;Обработка результатов турниров.&lt;/div&gt;&lt;div&gt;&lt;br&gt;&lt;/div&gt;&lt;div&gt;Endpoints:&lt;/div&gt;&lt;div&gt;POST /tournaments: Создание турнира.&lt;/div&gt;&lt;div&gt;GET /tournaments: Получение списка турниров.&lt;/div&gt;&lt;div&gt;GET /tournaments/{tournamentId}: Получение информации о турнире.&lt;/div&gt;&lt;div&gt;POST /tournaments/{tournamentId}/apply: Подача заявки на участие в турнире.&lt;/div&gt;&lt;div&gt;GET /tournaments/{tournamentId}/results: Получение результатов турнира.&lt;/div&gt;" style="text;html=1;align=left;verticalAlign=middle;whiteSpace=wrap;rounded=0;" parent="WIyWlLk6GJQsqaUBKTNV-1" vertex="1">
          <mxGeometry x="-250" y="-205" width="450" height="170" as="geometry" />
        </mxCell>
        <mxCell id="iVN39y9Mqh5KVstO0Rnh-36" style="edgeStyle=orthogonalEdgeStyle;rounded=0;orthogonalLoop=1;jettySize=auto;html=1;entryX=0.5;entryY=1;entryDx=0;entryDy=0;" parent="WIyWlLk6GJQsqaUBKTNV-1" source="iVN39y9Mqh5KVstO0Rnh-35" target="iVN39y9Mqh5KVstO0Rnh-10" edge="1">
          <mxGeometry relative="1" as="geometry" />
        </mxCell>
        <mxCell id="iVN39y9Mqh5KVstO0Rnh-35" value="&lt;div&gt;Организация и управление танковыми боями.&lt;/div&gt;&lt;div&gt;Обработка результатов боёв.&lt;/div&gt;&lt;div&gt;Обработка приглашений на бой.&lt;/div&gt;&lt;div&gt;&lt;br&gt;&lt;/div&gt;&lt;div&gt;Endpoints:&lt;/div&gt;&lt;div&gt;POST /battles: Создание боя.&lt;/div&gt;&lt;div&gt;GET /battles/{battleId}: Получение информации о бое.&lt;/div&gt;&lt;div style=&quot;&quot;&gt;POST /battles/{battleId}/result: Отправка результата боя.&lt;/div&gt;" style="text;html=1;align=left;verticalAlign=middle;whiteSpace=wrap;rounded=0;" parent="WIyWlLk6GJQsqaUBKTNV-1" vertex="1">
          <mxGeometry x="75" y="600" width="330" height="120" as="geometry" />
        </mxCell>
        <mxCell id="iVN39y9Mqh5KVstO0Rnh-37" value="" style="endArrow=classic;startArrow=classic;html=1;rounded=0;entryX=0.5;entryY=1;entryDx=0;entryDy=0;exitX=0.5;exitY=0;exitDx=0;exitDy=0;exitPerimeter=0;" parent="WIyWlLk6GJQsqaUBKTNV-1" source="iVN39y9Mqh5KVstO0Rnh-29" target="iVN39y9Mqh5KVstO0Rnh-13" edge="1">
          <mxGeometry width="50" height="50" relative="1" as="geometry">
            <mxPoint x="390" y="480" as="sourcePoint" />
            <mxPoint x="440" y="430" as="targetPoint" />
          </mxGeometry>
        </mxCell>
        <mxCell id="iVN39y9Mqh5KVstO0Rnh-39" style="edgeStyle=orthogonalEdgeStyle;rounded=0;orthogonalLoop=1;jettySize=auto;html=1;entryX=0.5;entryY=1;entryDx=0;entryDy=0;" parent="WIyWlLk6GJQsqaUBKTNV-1" source="iVN39y9Mqh5KVstO0Rnh-38" target="iVN39y9Mqh5KVstO0Rnh-12" edge="1">
          <mxGeometry relative="1" as="geometry" />
        </mxCell>
        <mxCell id="iVN39y9Mqh5KVstO0Rnh-38" value="&lt;div&gt;Отправка уведомлений о приглашениях, результатах, и событиях.&lt;/div&gt;&lt;div&gt;Поддержка различных каналов уведомлений (email, push-уведомления).&lt;/div&gt;&lt;div&gt;&lt;br&gt;&lt;/div&gt;&lt;div&gt;Endpoints:&lt;/div&gt;&lt;div&gt;POST /notifications: Отправка уведомления.&lt;/div&gt;&lt;div&gt;GET /notifications/{userId}: Получение уведомлений для пользователя.&lt;/div&gt;" style="text;html=1;align=left;verticalAlign=middle;whiteSpace=wrap;rounded=0;" parent="WIyWlLk6GJQsqaUBKTNV-1" vertex="1">
          <mxGeometry x="480" y="600" width="400" height="125" as="geometry" />
        </mxCell>
        <mxCell id="iVN39y9Mqh5KVstO0Rnh-41" style="edgeStyle=orthogonalEdgeStyle;rounded=0;orthogonalLoop=1;jettySize=auto;html=1;" parent="WIyWlLk6GJQsqaUBKTNV-1" source="iVN39y9Mqh5KVstO0Rnh-40" target="iVN39y9Mqh5KVstO0Rnh-13" edge="1">
          <mxGeometry relative="1" as="geometry" />
        </mxCell>
        <mxCell id="iVN39y9Mqh5KVstO0Rnh-40" value="&lt;div&gt;Сохранение и просмотр записей прошедших боёв и турниров&lt;/div&gt;&lt;div&gt;Интерфейс для просмотра записей.&lt;/div&gt;&lt;div&gt;&lt;br&gt;&lt;/div&gt;&lt;div&gt;Endpoints:&lt;/div&gt;&lt;div&gt;POST /replays: Сохранение повтора боя.&lt;/div&gt;&lt;div&gt;GET /replays/{battleId}: Получение повтора боя.&lt;/div&gt;" style="text;html=1;align=left;verticalAlign=middle;whiteSpace=wrap;rounded=0;" parent="WIyWlLk6GJQsqaUBKTNV-1" vertex="1">
          <mxGeometry x="-340" y="120" width="270" height="110" as="geometry" />
        </mxCell>
        <mxCell id="iVN39y9Mqh5KVstO0Rnh-43" style="edgeStyle=orthogonalEdgeStyle;rounded=0;orthogonalLoop=1;jettySize=auto;html=1;" parent="WIyWlLk6GJQsqaUBKTNV-1" source="iVN39y9Mqh5KVstO0Rnh-42" target="iVN39y9Mqh5KVstO0Rnh-14" edge="1">
          <mxGeometry relative="1" as="geometry" />
        </mxCell>
        <mxCell id="iVN39y9Mqh5KVstO0Rnh-42" value="&lt;div&gt;Расчет и обновление рейтингов игроков и турниров.&lt;/div&gt;&lt;div&gt;Хранение и управление данными рейтингов.&lt;/div&gt;&lt;div&gt;&lt;br&gt;&lt;/div&gt;&lt;div&gt;Endpoints:&lt;/div&gt;&lt;div&gt;GET /ratings/user/{userId}: Получение рейтинга пользователя.&lt;/div&gt;&lt;div&gt;GET /ratings/tournament/{tournamentId}: Получение рейтинга турнира.&lt;/div&gt;" style="text;html=1;align=left;verticalAlign=middle;whiteSpace=wrap;rounded=0;" parent="WIyWlLk6GJQsqaUBKTNV-1" vertex="1">
          <mxGeometry x="210" y="-470" width="320" height="140" as="geometry" />
        </mxCell>
        <mxCell id="iVN39y9Mqh5KVstO0Rnh-44" value="БД Rating Service" style="shape=cylinder3;whiteSpace=wrap;html=1;boundedLbl=1;backgroundOutline=1;size=15;" parent="WIyWlLk6GJQsqaUBKTNV-1" vertex="1">
          <mxGeometry x="320" y="-160" width="60" height="80" as="geometry" />
        </mxCell>
        <mxCell id="iVN39y9Mqh5KVstO0Rnh-46" value="" style="endArrow=classic;startArrow=classic;html=1;rounded=0;entryX=0;entryY=0.5;entryDx=0;entryDy=0;entryPerimeter=0;" parent="WIyWlLk6GJQsqaUBKTNV-1" target="iVN39y9Mqh5KVstO0Rnh-44" edge="1">
          <mxGeometry width="50" height="50" relative="1" as="geometry">
            <mxPoint x="280" y="-120" as="sourcePoint" />
            <mxPoint x="330" y="-170" as="targetPoint" />
          </mxGeometry>
        </mxCell>
        <mxCell id="iVN39y9Mqh5KVstO0Rnh-48" value="" style="edgeStyle=orthogonalEdgeStyle;rounded=0;orthogonalLoop=1;jettySize=auto;html=1;" parent="WIyWlLk6GJQsqaUBKTNV-1" source="iVN39y9Mqh5KVstO0Rnh-47" target="iVN39y9Mqh5KVstO0Rnh-7" edge="1">
          <mxGeometry relative="1" as="geometry" />
        </mxCell>
        <mxCell id="iVN39y9Mqh5KVstO0Rnh-47" value="&lt;div&gt;Клиентское приложение для участия в боях.&lt;/div&gt;&lt;div&gt;Интерфейс для загрузки и запуска игры.&lt;/div&gt;&lt;div&gt;&lt;br&gt;&lt;/div&gt;&lt;div&gt;Endpoints:&lt;/div&gt;&lt;div&gt;GET /game/download: Загрузка приложения.&lt;/div&gt;&lt;div&gt;POST /game/upload: Загрузка результатов боя.&lt;/div&gt;" style="text;html=1;align=left;verticalAlign=middle;whiteSpace=wrap;rounded=0;" parent="WIyWlLk6GJQsqaUBKTNV-1" vertex="1">
          <mxGeometry x="600" y="270" width="340" height="100" as="geometry" />
        </mxCell>
        <mxCell id="iVN39y9Mqh5KVstO0Rnh-49" value="&lt;div&gt;Администрирование турниров, пользователей и боёв.&lt;/div&gt;&lt;div&gt;Управление настройками системы.&lt;/div&gt;" style="text;html=1;align=left;verticalAlign=middle;whiteSpace=wrap;rounded=0;" parent="WIyWlLk6GJQsqaUBKTNV-1" vertex="1">
          <mxGeometry x="90" y="290" width="220" height="40" as="geometry" />
        </mxCell>
        <mxCell id="iVN39y9Mqh5KVstO0Rnh-50" style="edgeStyle=orthogonalEdgeStyle;rounded=0;orthogonalLoop=1;jettySize=auto;html=1;entryX=-0.037;entryY=0.875;entryDx=0;entryDy=0;entryPerimeter=0;" parent="WIyWlLk6GJQsqaUBKTNV-1" source="iVN39y9Mqh5KVstO0Rnh-49" target="iVN39y9Mqh5KVstO0Rnh-15" edge="1">
          <mxGeometry relative="1" as="geometry" />
        </mxCell>
        <mxCell id="iVN39y9Mqh5KVstO0Rnh-51" value="" style="endArrow=classic;startArrow=classic;html=1;rounded=0;entryX=1;entryY=1;entryDx=0;entryDy=0;exitX=0;exitY=0.5;exitDx=0;exitDy=0;" parent="WIyWlLk6GJQsqaUBKTNV-1" source="iVN39y9Mqh5KVstO0Rnh-12" target="iVN39y9Mqh5KVstO0Rnh-15" edge="1">
          <mxGeometry width="50" height="50" relative="1" as="geometry">
            <mxPoint x="600" y="600" as="sourcePoint" />
            <mxPoint x="330" y="430" as="targetPoint" />
          </mxGeometry>
        </mxCell>
      </root>
    </mxGraphModel>
  </diagram>
</mxfile>
